<svg width="108" height="42" viewBox="0 0 108 42" fill="none" xmlns="http://www.w3.org/2000/svg">
<circle cx="21" cy="21" r="19.5" stroke="white" stroke-width="3"/>
<circle cx="21" cy="21" r="13.5" stroke="white" stroke-width="3"/>
<circle cx="87" cy="21" r="19.5" stroke="white" stroke-width="3"/>
<circle cx="87" cy="21" r="13.5" stroke="white" stroke-width="3"/>
<circle cx="54.5" cy="10.5" r="6" stroke="white" stroke-width="3"/>
<circle cx="54.5" cy="10.5" r="10" stroke="white"/>
<path d="M50 1L36 7.5L35.5 8.5L50.5 1.5L50 1Z" fill="white"/>
<path d="M53.5 20L39.5 26.5L39 27.5L54 20.5L53.5 20Z" fill="white"/>
<path d="M59 1L73 7.5L73.5 8.5L58.5 1.5L59 1Z" fill="white"/>
<path d="M55.5 20L69.5 26.5L70 27.5L55 20.5L55.5 20Z" fill="white"/>
<path d="M11 22C10.8333 18.8333 12.6 12.2 21 11" stroke="white"/>
<path d="M77.0104 22C76.8438 18.8333 78.6104 12.2 87.0104 11" stroke="white"/>
</svg>
